<svg xmlns="http://www.w3.org/2000/svg" width="376" height="325" viewBox="0 0 376 325" fill="none">
<path opacity="0.25" d="M7.6683 312.208C14.4178 320.327 25.8571 324.002 40.9084 323.576C55.9522 323.15 74.5134 318.627 95.3669 310.463C137.069 294.138 187.829 263.294 237.749 221.794C287.669 180.294 327.264 136.021 350.932 98.002C362.767 78.9904 370.604 61.5675 373.771 46.8545C376.939 32.1342 375.415 20.2162 368.666 12.0974C361.916 3.9786 350.477 0.304051 335.426 0.730023C320.382 1.15578 301.821 5.67868 280.967 13.8426C239.265 30.1683 188.505 61.0113 138.585 102.512C88.6651 144.012 49.0696 188.285 25.4019 226.304C13.5665 245.315 5.72958 262.738 2.5633 277.451C-0.604558 292.172 0.918838 304.09 7.6683 312.208Z" stroke="url(#paint0_linear_878_83397)"/>
<defs>
<linearGradient id="paint0_linear_878_83397" x1="329.967" y1="278.481" x2="151.38" y2="98.2606" gradientUnits="userSpaceOnUse">
<stop stop-color="#EAFFFF"/>
<stop offset="1" stop-color="#EAFFFF" stop-opacity="0"/>
</linearGradient>
</defs>
</svg>