<svg width="24" height="24" xmlns="http://www.w3.org/2000/svg" fill-rule="evenodd" clip-rule="evenodd" fill="rgb(149, 157, 165)" data-v-73278866=""><path d="M23 0.000976562H1C0.4 0.000976562 0 0.400977 0 1.00098V23.001C0 23.601 0.4 24.001 1 24.001H23C23.6 24.001 24 23.601 24 23.001V1.00098C24 0.400977 23.6 0.000976562 23 0.000976562ZM7.1 20.501H3.6V9.00098H7.2V20.501H7.1ZM5.3 7.40098C4.2 7.40098 3.2 6.50098 3.2 5.30098C3.2 4.20098 4.1 3.20098 5.3 3.20098C6.4 3.20098 7.4 4.10098 7.4 5.30098C7.4 6.50098 6.5 7.40098 5.3 7.40098ZM20.5 20.501H16.9V14.901C16.9 13.601 16.9 11.901 15.1 11.901C13.2 11.901 13 13.301 13 14.801V20.501H9.4V9.00098H12.8V10.601C13.3 9.70098 14.4 8.80098 16.2 8.80098C19.8 8.80098 20.5 11.201 20.5 14.301V20.501Z" style="pointer-events:none" data-v-73278866=""></path></svg>