<svg id="Capa_1" data-name="Capa 1" xmlns="http://www.w3.org/2000/svg" xmlns:xlink="http://www.w3.org/1999/xlink" viewBox="0 0 178.4 55.11"><defs><style>.cls-1{fill:#000038;}.cls-2{fill:url(#Degradado_sin_nombre_6);}.cls-3{fill:none;stroke:#000038;stroke-miterlimit:10;stroke-width:0.89px;}.cls-4{fill:url(#Degradado_sin_nombre_4);}.cls-5{fill:url(#Degradado_sin_nombre_3);}.cls-6{fill:url(#Degradado_sin_nombre_3-2);}.cls-7{fill:#fff;}</style><linearGradient id="Degradado_sin_nombre_6" x1="27.41" y1="25.15" x2="44.04" y2="25.15" gradientUnits="userSpaceOnUse"><stop offset="0" stop-color="#16f6f0"/><stop offset="0.1" stop-color="#4bb8f4"/><stop offset="0.21" stop-color="#7d7df8"/><stop offset="0.3" stop-color="#a54ffb"/><stop offset="0.39" stop-color="#c12efd"/><stop offset="0.46" stop-color="#d319ff"/><stop offset="0.51" stop-color="#d912ff"/><stop offset="0.52" stop-color="#d011f9"/><stop offset="0.57" stop-color="#a60ddd"/><stop offset="0.63" stop-color="#8109c4"/><stop offset="0.69" stop-color="#6306b0"/><stop offset="0.76" stop-color="#4c03a1"/><stop offset="0.82" stop-color="#3c0196"/><stop offset="0.9" stop-color="#32008f"/><stop offset="1" stop-color="#2f008d"/></linearGradient><linearGradient id="Degradado_sin_nombre_4" x1="40.12" y1="26.35" x2="-0.54" y2="30.96" gradientTransform="translate(21.01 -10.12) rotate(35.36)" gradientUnits="userSpaceOnUse"><stop offset="0" stop-color="#16f6f0"/><stop offset="0.06" stop-color="#19d4e2"/><stop offset="0.15" stop-color="#1ea2ce"/><stop offset="0.25" stop-color="#2377bd"/><stop offset="0.35" stop-color="#2752ae"/><stop offset="0.46" stop-color="#2a34a2"/><stop offset="0.57" stop-color="#2c1d99"/><stop offset="0.69" stop-color="#2e0d92"/><stop offset="0.83" stop-color="#2f038e"/><stop offset="1" stop-color="#2f008d"/></linearGradient><linearGradient id="Degradado_sin_nombre_3" x1="17.63" y1="23.8" x2="32.16" y2="48.34" gradientTransform="translate(27.44 -8.21) rotate(35.36)" gradientUnits="userSpaceOnUse"><stop offset="0" stop-color="#16f6f0"/><stop offset="1" stop-color="#2f008d"/></linearGradient><linearGradient id="Degradado_sin_nombre_3-2" x1="8.1" y1="46.83" x2="22" y2="26.81" gradientTransform="translate(23.31 -2.93) rotate(35.36)" xlink:href="#Degradado_sin_nombre_3"/></defs><polygon class="cls-1" points="46.24 14.64 46.24 40.47 31.64 48.9 23.86 53.39 20.4 51.39 14.2 47.81 9.3 44.98 1.49 40.47 1.49 14.64 23.86 1.72 38.55 10.2 43.46 13.03 46.24 14.64"/><path class="cls-2" d="M44,31.51,39.87,32l.34-9.36L35.83,30l-3.74-4.53c-.2.92-.42,1.75-.65,2.47a15.3,15.3,0,0,1-.75,1.88,8.84,8.84,0,0,1-1.26,1.9,8.45,8.45,0,0,1-1.68,1.47l-.34-.7a7,7,0,0,0,2-2.47,15.23,15.23,0,0,0,1.29-3.9l1.82-8.93,4.36,8.16,3.89-7.89,1.88.06Zm-8.1-4.65-3-5.21-.43,2.23,3,3.86Zm6.32-1.7v-.33l-.45.17a15.19,15.19,0,0,1-1,4.53l.83.14a21.84,21.84,0,0,0,.46-2.4A17.77,17.77,0,0,0,42.26,25.16Z" transform="translate(-1.27 -1.6)"/><polygon class="cls-3" points="47.28 14.04 47.28 41.07 32 49.9 23.86 54.59 20.24 52.5 13.75 48.76 8.62 45.79 0.45 41.07 0.45 14.04 23.86 0.52 39.23 9.39 44.37 12.36 47.28 14.04"/><rect class="cls-4" x="23.28" y="9.65" width="6.21" height="36.52" transform="translate(-12.55 18.81) rotate(-35.36)"/><rect class="cls-5" x="24.85" y="29.82" width="3.49" height="18.26" transform="translate(-18.9 20.97) rotate(-35.36)"/><rect class="cls-6" x="13.14" y="16.84" width="6.21" height="36.52" transform="translate(-18.58 14.27) rotate(-35.36)"/><polygon class="cls-1" points="46.24 20.67 46.24 31.54 31.64 48.9 23.86 53.39 20.4 51.39 46.24 20.67"/><path class="cls-7" d="M52,43.06V16.45H57.3V43.06Z" transform="translate(-1.27 -1.6)"/><path class="cls-7" d="M62.62,21.77V16.45H94.54A5.07,5.07,0,0,1,93,20.24a5.19,5.19,0,0,1-3.74,1.53Zm5.32,21.29a5.14,5.14,0,0,1-3.78-1.54,5.23,5.23,0,0,1-1.54-3.78V27.1h5.32v8A2.69,2.69,0,0,0,68.69,37a2.66,2.66,0,0,0,1.91.75H89.22V32.42H78.58a5.14,5.14,0,0,1-3.78-1.54,5.23,5.23,0,0,1-1.54-3.78H94.54v16Z" transform="translate(-1.27 -1.6)"/><path class="cls-7" d="M105.18,43.06V21.77l-5.32-5.32h8l13.3,13.31,13.3-13.31h8l-5.32,5.32V43.06h-5.32v-16l-8,8v8h-5.32v-8l-8-8v16Z" transform="translate(-1.27 -1.6)"/><path class="cls-7" d="M153.07,21.77a5.17,5.17,0,0,1-3.79-1.53,5.27,5.27,0,0,1-1.53-3.79h31.92a5.1,5.1,0,0,1-1.58,3.79,5.21,5.21,0,0,1-3.74,1.53Zm0,10.65a5.18,5.18,0,0,1-3.79-1.54,5.26,5.26,0,0,1-1.53-3.78h31.92a5.1,5.1,0,0,1-1.58,3.78,5.22,5.22,0,0,1-3.74,1.54Zm0,10.64a5.18,5.18,0,0,1-3.79-1.54,5.26,5.26,0,0,1-1.53-3.78h31.92a5.1,5.1,0,0,1-1.58,3.78,5.22,5.22,0,0,1-3.74,1.54Z" transform="translate(-1.27 -1.6)"/></svg>